<svg xmlns="http://www.w3.org/2000/svg" viewBox="0 0 500 500" role="img" aria-label="Neovia Solutions">
  <rect width="500" height="500" fill="none"/>
  <g fill="#ffffff">
    <path d="M3 14h21l89 101V14h21v156h-21L24 69v101H3z"/>
    <rect x="166" y="13" width="146" height="20"/>
    <rect x="193" y="82" width="92" height="20"/>
    <rect x="223" y="151" width="39" height="19"/>
    <path d="M410 10c51 0 88 35 88 82s-37 82-88 82-88-35-88-82 37-82 88-82zm0 19c-39 0-67 26-67 63s28 63 67 63 67-26 67-63-28-63-67-63z"/>
    <path d="M2 229h22l53 116 53-116h23L80 386h-8z"/>
    <rect x="229" y="229" width="20" height="157"/>
    <path d="M413 229h8l76 157h-24l-56-119-57 119h-24z"/>
    <path d="M7 472c6 10 14 15 23 15 10 0 17-6 17-14 0-8-6-12-20-18-15-7-24-16-24-31 0-18 14-31 34-31 15 0 26 6 34 18l-15 12c-6-8-12-12-20-12-8 0-14 5-14 12 0 8 7 12 20 18 17 8 25 17 25 32 0 19-15 32-37 32-17 0-30-7-40-22z"/>
    <path d="M78 449c0-32 24-56 56-56s56 24 56 56-24 56-56 56-56-24-56-56zm91 0c0-21-14-38-35-38s-35 17-35 38 14 38 35 38 35-17 35-38z"/>
    <path d="M212 394h20v91h52v18h-72z"/>
    <path d="M302 394h20v65c0 19 9 28 26 28s26-9 26-28v-65h20v66c0 31-17 45-46 45s-46-14-46-45z"/>
    <path d="M432 412h-36v-18h92v18h-36v91h-20z"/>
  </g>
</svg>
